<?xml version="1.0" encoding="UTF-8" standalone="no"?>
<!DOCTYPE svg PUBLIC "-//W3C//DTD SVG 1.1//EN"
 "http://www.w3.org/Graphics/SVG/1.1/DTD/svg11.dtd">
<!-- Generated by graphviz version 12.2.1 (20241206.2353)
 -->
<!-- Title: current Pages: 1 -->
<svg width="829pt" height="1300pt"
 viewBox="0.00 0.00 828.80 1299.90" xmlns="http://www.w3.org/2000/svg" xmlns:xlink="http://www.w3.org/1999/xlink">
<g id="graph0" class="graph" transform="scale(1 1) rotate(0) translate(4 1295.9)">
<title>current</title>
<polygon fill="white" stroke="none" points="-4,4 -4,-1295.9 824.8,-1295.9 824.8,4 -4,4"/>
<text text-anchor="start" x="323.4" y="-1271.8" font-family="Helvetica,sans-Serif" font-weight="bold" font-size="18.00">Current Architecture</text>
<text text-anchor="start" x="252.9" y="-1253.8" font-family="Helvetica,sans-Serif" font-size="18.00">Two repos, duplicated logic, CSV bridge</text>
<g id="clust1" class="cluster">
<title>cluster_tracker</title>
<polygon fill="#ebf5fb" stroke="#2980b9" points="157.03,-752.3 157.03,-1112 480.02,-1112 480.02,-752.3 157.03,-752.3"/>
<text text-anchor="start" x="262.27" y="-1095.7" font-family="Helvetica,sans-Serif" font-weight="bold" font-size="14.00" fill="#2980b9">tariff&#45;rate&#45;tracker/</text>
</g>
<g id="clust2" class="cluster">
<title>cluster_t_engine</title>
<polygon fill="#fadbd8" stroke="#e74c3c" points="211.03,-901.45 211.03,-996.1 385.02,-996.1 385.02,-901.45 211.03,-901.45"/>
<text text-anchor="middle" x="298.02" y="-981.65" font-family="Helvetica,sans-Serif" font-size="11.00" fill="#c0392b">Calculation Engine</text>
</g>
<g id="clust3" class="cluster">
<title>cluster_bridge</title>
<polygon fill="#fef9e7" stroke="#f39c12" points="316.02,-760.3 316.02,-863.45 472.02,-863.45 472.02,-760.3 316.02,-760.3"/>
<text text-anchor="start" x="332.9" y="-850" font-family="Helvetica,sans-Serif" font-weight="bold" font-size="11.00" fill="#e67e22">generate_etrs_config.R</text>
<text text-anchor="start" x="362.15" y="-839" font-family="Helvetica,sans-Serif" font-size="11.00" fill="#e67e22">(bridge layer)</text>
</g>
<g id="clust4" class="cluster">
<title>cluster_etrs</title>
<polygon fill="#f5eef8" stroke="#8e44ad" points="127.03,-8 127.03,-617.9 347.02,-617.9 347.02,-8 127.03,-8"/>
<text text-anchor="start" x="199.15" y="-601.6" font-family="Helvetica,sans-Serif" font-weight="bold" font-size="14.00" fill="#8e44ad">Tariff&#45;ETRs/</text>
</g>
<g id="clust5" class="cluster">
<title>cluster_e_engine</title>
<polygon fill="#fadbd8" stroke="#e74c3c" points="142.03,-313.2 142.03,-407.85 323.02,-407.85 323.02,-313.2 142.03,-313.2"/>
<text text-anchor="middle" x="232.53" y="-393.4" font-family="Helvetica,sans-Serif" font-size="11.00" fill="#c0392b">Calculation Engine &#160;(DUPLICATE)</text>
</g>
<g id="clust6" class="cluster">
<title>cluster_gtap</title>
<polygon fill="#fef9e7" stroke="#f39c12" points="135.03,-102.15 135.03,-195.3 339.02,-195.3 339.02,-102.15 135.03,-102.15"/>
<text text-anchor="middle" x="237.03" y="-181.8" font-family="Helvetica,sans-Serif" font-size="10.00" fill="#e67e22">GTAP Post&#45;Processing</text>
</g>
<!-- hts -->
<g id="node1" class="node">
<title>hts</title>
<path fill="#e8e8e8" stroke="black" d="M368.42,-1217.58C368.42,-1220.54 348.52,-1222.94 324.02,-1222.94 299.53,-1222.94 279.62,-1220.54 279.62,-1217.58 279.62,-1217.58 279.62,-1169.32 279.62,-1169.32 279.62,-1166.36 299.53,-1163.96 324.02,-1163.96 348.52,-1163.96 368.42,-1166.36 368.42,-1169.32 368.42,-1169.32 368.42,-1217.58 368.42,-1217.58"/>
<path fill="none" stroke="black" d="M368.42,-1217.58C368.42,-1214.62 348.52,-1212.22 324.02,-1212.22 299.53,-1212.22 279.62,-1214.62 279.62,-1217.58"/>
<text text-anchor="middle" x="324.02" y="-1196.3" font-family="Helvetica,sans-Serif" font-size="12.00">HTS JSON</text>
<text text-anchor="middle" x="324.02" y="-1182.05" font-family="Helvetica,sans-Serif" font-size="12.00">Archives</text>
</g>
<!-- t_parse -->
<g id="node4" class="node">
<title>t_parse</title>
<path fill="white" stroke="black" d="M366.3,-1080.25C366.3,-1080.25 273.75,-1080.25 273.75,-1080.25 267.75,-1080.25 261.75,-1074.25 261.75,-1068.25 261.75,-1068.25 261.75,-1035.1 261.75,-1035.1 261.75,-1029.1 267.75,-1023.1 273.75,-1023.1 273.75,-1023.1 366.3,-1023.1 366.3,-1023.1 372.3,-1023.1 378.3,-1029.1 378.3,-1035.1 378.3,-1035.1 378.3,-1068.25 378.3,-1068.25 378.3,-1074.25 372.3,-1080.25 366.3,-1080.25"/>
<text text-anchor="middle" x="320.02" y="-1061.65" font-family="Helvetica,sans-Serif" font-size="12.00">HTS Parsing</text>
<text text-anchor="middle" x="320.02" y="-1047.4" font-family="Helvetica,sans-Serif" font-size="12.00">(Ch99 footnotes,</text>
<text text-anchor="middle" x="320.02" y="-1033.15" font-family="Helvetica,sans-Serif" font-size="12.00">rate extraction)</text>
</g>
<!-- hts&#45;&gt;t_parse -->
<g id="edge1" class="edge">
<title>hts&#45;&gt;t_parse</title>
<path fill="none" stroke="black" d="M323.2,-1163.49C322.6,-1142.79 321.8,-1114.69 321.15,-1091.97"/>
<polygon fill="black" stroke="black" points="324.65,-1092.05 320.87,-1082.16 317.66,-1092.25 324.65,-1092.05"/>
</g>
<!-- census -->
<g id="node2" class="node">
<title>census</title>
<path fill="#e8e8e8" stroke="black" d="M106.05,-1217.58C106.05,-1220.54 82.28,-1222.94 53.02,-1222.94 23.77,-1222.94 0,-1220.54 0,-1217.58 0,-1217.58 0,-1169.32 0,-1169.32 0,-1166.36 23.77,-1163.96 53.02,-1163.96 82.28,-1163.96 106.05,-1166.36 106.05,-1169.32 106.05,-1169.32 106.05,-1217.58 106.05,-1217.58"/>
<path fill="none" stroke="black" d="M106.05,-1217.58C106.05,-1214.62 82.28,-1212.22 53.02,-1212.22 23.77,-1212.22 0,-1214.62 0,-1217.58"/>
<text text-anchor="middle" x="53.02" y="-1196.3" font-family="Helvetica,sans-Serif" font-size="12.00">Census Import</text>
<text text-anchor="middle" x="53.02" y="-1182.05" font-family="Helvetica,sans-Serif" font-size="12.00">Data</text>
</g>
<!-- e_delta -->
<g id="node12" class="node">
<title>e_delta</title>
<path fill="white" stroke="black" d="M289.18,-265.2C289.18,-265.2 174.88,-265.2 174.88,-265.2 168.88,-265.2 162.88,-259.2 162.88,-253.2 162.88,-253.2 162.88,-234.3 162.88,-234.3 162.88,-228.3 168.88,-222.3 174.88,-222.3 174.88,-222.3 289.18,-222.3 289.18,-222.3 295.18,-222.3 301.18,-228.3 301.18,-234.3 301.18,-234.3 301.18,-253.2 301.18,-253.2 301.18,-259.2 295.18,-265.2 289.18,-265.2"/>
<text text-anchor="middle" x="232.03" y="-246.6" font-family="Helvetica,sans-Serif" font-size="12.00">Import Weighting</text>
<text text-anchor="middle" x="232.03" y="-232.35" font-family="Helvetica,sans-Serif" font-size="12.00">+ Delta Computation</text>
</g>
<!-- census&#45;&gt;e_delta -->
<g id="edge4" class="edge">
<title>census&#45;&gt;e_delta</title>
<path fill="none" stroke="#999999" stroke-dasharray="5,2" d="M53.02,-1163.54C53.02,-1135.27 53.02,-1091.02 53.02,-1052.68 53.02,-1052.68 53.02,-1052.68 53.02,-348.77 53.02,-299.67 104,-273.35 151.54,-259.48"/>
<polygon fill="#999999" stroke="#999999" points="152.38,-262.88 161.1,-256.86 150.53,-256.13 152.38,-262.88"/>
</g>
<!-- bea -->
<g id="node3" class="node">
<title>bea</title>
<path fill="#e8e8e8" stroke="black" d="M250.55,-1225.6C250.55,-1229.54 224.77,-1232.74 193.03,-1232.74 161.28,-1232.74 135.5,-1229.54 135.5,-1225.6 135.5,-1225.6 135.5,-1161.3 135.5,-1161.3 135.5,-1157.36 161.28,-1154.16 193.03,-1154.16 224.77,-1154.16 250.55,-1157.36 250.55,-1161.3 250.55,-1161.3 250.55,-1225.6 250.55,-1225.6"/>
<path fill="none" stroke="black" d="M250.55,-1225.6C250.55,-1221.66 224.77,-1218.45 193.03,-1218.45 161.28,-1218.45 135.5,-1221.66 135.5,-1225.6"/>
<text text-anchor="middle" x="193.03" y="-1203.43" font-family="Helvetica,sans-Serif" font-size="12.00">BEA / DataWeb</text>
<text text-anchor="middle" x="193.03" y="-1189.18" font-family="Helvetica,sans-Serif" font-size="12.00">(metal, USMCA,</text>
<text text-anchor="middle" x="193.03" y="-1174.93" font-family="Helvetica,sans-Serif" font-size="12.00">MFN data)</text>
</g>
<!-- t_calc -->
<g id="node5" class="node">
<title>t_calc</title>
<path fill="#fdedec" stroke="black" d="M364.92,-966.6C364.92,-966.6 231.12,-966.6 231.12,-966.6 225.12,-966.6 219.12,-960.6 219.12,-954.6 219.12,-954.6 219.12,-921.45 219.12,-921.45 219.12,-915.45 225.12,-909.45 231.12,-909.45 231.12,-909.45 364.92,-909.45 364.92,-909.45 370.92,-909.45 376.92,-915.45 376.92,-921.45 376.92,-921.45 376.92,-954.6 376.92,-954.6 376.92,-960.6 370.92,-966.6 364.92,-966.6"/>
<text text-anchor="middle" x="298.02" y="-948" font-family="Helvetica,sans-Serif" font-size="12.00">USMCA + Metal Scaling</text>
<text text-anchor="middle" x="298.02" y="-933.75" font-family="Helvetica,sans-Serif" font-size="12.00">+ Floors + Stacking</text>
<text text-anchor="middle" x="298.02" y="-919.5" font-family="Helvetica,sans-Serif" font-size="12.00">(hardcoded rules)</text>
</g>
<!-- bea&#45;&gt;t_calc -->
<g id="edge2" class="edge">
<title>bea&#45;&gt;t_calc</title>
<path fill="none" stroke="#999999" stroke-dasharray="5,2" d="M180.59,-1153.89C171.37,-1118.02 163.59,-1064.11 184.28,-1023.1 194.49,-1002.84 212.15,-986.26 230.55,-973.33"/>
<polygon fill="#999999" stroke="#999999" points="232.27,-976.39 238.64,-967.93 228.38,-970.57 232.27,-976.39"/>
<text text-anchor="middle" x="196.65" y="-1048.18" font-family="Helvetica,sans-Serif" font-size="10.00"> &#160;data</text>
</g>
<!-- e_calc -->
<g id="node10" class="node">
<title>e_calc</title>
<path fill="#fdedec" stroke="black" d="M298.93,-378.35C298.93,-378.35 165.12,-378.35 165.12,-378.35 159.12,-378.35 153.12,-372.35 153.12,-366.35 153.12,-366.35 153.12,-333.2 153.12,-333.2 153.12,-327.2 159.12,-321.2 165.12,-321.2 165.12,-321.2 298.93,-321.2 298.93,-321.2 304.93,-321.2 310.93,-327.2 310.93,-333.2 310.93,-333.2 310.93,-366.35 310.93,-366.35 310.93,-372.35 304.93,-378.35 298.93,-378.35"/>
<text text-anchor="middle" x="232.03" y="-359.75" font-family="Helvetica,sans-Serif" font-size="12.00">USMCA + Metal Scaling</text>
<text text-anchor="middle" x="232.03" y="-345.5" font-family="Helvetica,sans-Serif" font-size="12.00">+ Floors + Stacking</text>
<text text-anchor="middle" x="232.03" y="-331.25" font-family="Helvetica,sans-Serif" font-size="12.00">(hardcoded rules)</text>
</g>
<!-- bea&#45;&gt;e_calc -->
<g id="edge3" class="edge">
<title>bea&#45;&gt;e_calc</title>
<path fill="none" stroke="#999999" stroke-dasharray="5,2" d="M160.61,-1153.87C141.5,-1127.2 121.03,-1089.94 121.03,-1052.68 121.03,-1052.68 121.03,-1052.68 121.03,-455.3 121.03,-425.84 142,-402.24 165.71,-384.98"/>
<polygon fill="#999999" stroke="#999999" points="167.39,-388.07 173.65,-379.53 163.43,-382.3 167.39,-388.07"/>
<text text-anchor="middle" x="149.9" y="-734.8" font-family="Helvetica,sans-Serif" font-size="10.00"> &#160;same data &#160;</text>
</g>
<!-- t_parse&#45;&gt;t_calc -->
<g id="edge5" class="edge">
<title>t_parse&#45;&gt;t_calc</title>
<path fill="none" stroke="black" d="M314.53,-1022.79C311.85,-1009.2 308.59,-992.64 305.67,-977.84"/>
<polygon fill="black" stroke="black" points="309.19,-977.56 303.82,-968.43 302.32,-978.92 309.19,-977.56"/>
</g>
<!-- t_timeseries -->
<g id="node6" class="node">
<title>t_timeseries</title>
<polygon fill="#d5f5e3" stroke="black" points="289.05,-818.33 165,-818.33 165,-775.43 295.05,-775.43 295.05,-812.33 289.05,-818.33"/>
<polyline fill="none" stroke="black" points="289.05,-818.33 289.05,-812.33"/>
<polyline fill="none" stroke="black" points="295.05,-812.33 289.05,-812.33"/>
<text text-anchor="middle" x="230.03" y="-799.73" font-family="Helvetica,sans-Serif" font-size="12.00">rate_timeseries.rds</text>
<text text-anchor="middle" x="230.03" y="-785.48" font-family="Helvetica,sans-Serif" font-size="12.00">(daily series)</text>
</g>
<!-- t_calc&#45;&gt;t_timeseries -->
<g id="edge6" class="edge">
<title>t_calc&#45;&gt;t_timeseries</title>
<path fill="none" stroke="black" d="M284.43,-909.2C273.02,-885.85 256.74,-852.54 244.97,-828.45"/>
<polygon fill="black" stroke="black" points="248.26,-827.23 240.73,-819.78 241.98,-830.3 248.26,-827.23"/>
</g>
<!-- strip -->
<g id="node7" class="node">
<title>strip</title>
<path fill="#fef5e1" stroke="black" d="M452.3,-825.45C452.3,-825.45 335.75,-825.45 335.75,-825.45 329.75,-825.45 323.75,-819.45 323.75,-813.45 323.75,-813.45 323.75,-780.3 323.75,-780.3 323.75,-774.3 329.75,-768.3 335.75,-768.3 335.75,-768.3 452.3,-768.3 452.3,-768.3 458.3,-768.3 464.3,-774.3 464.3,-780.3 464.3,-780.3 464.3,-813.45 464.3,-813.45 464.3,-819.45 458.3,-825.45 452.3,-825.45"/>
<text text-anchor="middle" x="394.02" y="-806.85" font-family="Helvetica,sans-Serif" font-size="12.00">STRIP final_rate</text>
<text text-anchor="middle" x="394.02" y="-792.6" font-family="Helvetica,sans-Serif" font-size="12.00">Export statutory rates</text>
<text text-anchor="middle" x="394.02" y="-778.35" font-family="Helvetica,sans-Serif" font-size="12.00">+ params YAML</text>
</g>
<!-- t_calc&#45;&gt;strip -->
<g id="edge7" class="edge">
<title>t_calc&#45;&gt;strip</title>
<path fill="none" stroke="#e67e22" d="M317.22,-909.2C331.94,-887.87 352.39,-858.23 368.48,-834.9"/>
<polygon fill="#e67e22" stroke="#e67e22" points="371.2,-837.12 374,-826.9 365.44,-833.14 371.2,-837.12"/>
<text text-anchor="start" x="343.15" y="-882.95" font-family="Helvetica,sans-Serif" font-style="italic" font-size="10.00" fill="#e67e22">discards computed</text>
<text text-anchor="start" x="364.52" y="-872.95" font-family="Helvetica,sans-Serif" font-style="italic" font-size="10.00" fill="#e67e22">final_rate</text>
</g>
<!-- csv_dirs -->
<g id="node8" class="node">
<title>csv_dirs</title>
<polygon fill="#fdebd0" stroke="#e67e22" points="427.8,-714.3 424.8,-718.3 403.8,-718.3 400.8,-714.3 230.25,-714.3 230.25,-663.9 427.8,-663.9 427.8,-714.3"/>
<text text-anchor="start" x="263.4" y="-696.7" font-family="Helvetica,sans-Serif" font-weight="bold" font-size="12.00">config/historical/{date}/</text>
<text text-anchor="start" x="244.65" y="-684.7" font-family="Helvetica,sans-Serif" font-size="12.00">40 folders x 15MB CSV + YAML</text>
<text text-anchor="start" x="282.15" y="-672.7" font-family="Helvetica,sans-Serif" font-size="12.00">(~600MB on disk)</text>
</g>
<!-- strip&#45;&gt;csv_dirs -->
<g id="edge8" class="edge">
<title>strip&#45;&gt;csv_dirs</title>
<path fill="none" stroke="#e67e22" stroke-width="2" d="M376.78,-767.81C368.84,-754.9 359.34,-739.43 350.91,-725.71"/>
<polygon fill="#e67e22" stroke="#e67e22" stroke-width="2" points="353.94,-723.96 345.72,-717.27 347.98,-727.63 353.94,-723.96"/>
</g>
<!-- e_load -->
<g id="node9" class="node">
<title>e_load</title>
<path fill="white" stroke="black" d="M326.8,-586.15C326.8,-586.15 177.25,-586.15 177.25,-586.15 171.25,-586.15 165.25,-580.15 165.25,-574.15 165.25,-574.15 165.25,-526.75 165.25,-526.75 165.25,-520.75 171.25,-514.75 177.25,-514.75 177.25,-514.75 326.8,-514.75 326.8,-514.75 332.8,-514.75 338.8,-520.75 338.8,-526.75 338.8,-526.75 338.8,-574.15 338.8,-574.15 338.8,-580.15 332.8,-586.15 326.8,-586.15"/>
<text text-anchor="middle" x="252.03" y="-567.55" font-family="Helvetica,sans-Serif" font-size="12.00">Load CSV + Parse Config</text>
<text text-anchor="middle" x="252.03" y="-553.3" font-family="Helvetica,sans-Serif" font-size="12.00">(40x, ~20 sec each)</text>
<text text-anchor="middle" x="252.03" y="-539.05" font-family="Helvetica,sans-Serif" font-size="12.00">Also re&#45;loads metal content</text>
<text text-anchor="middle" x="252.03" y="-524.8" font-family="Helvetica,sans-Serif" font-size="12.00">each time</text>
</g>
<!-- csv_dirs&#45;&gt;e_load -->
<g id="edge9" class="edge">
<title>csv_dirs&#45;&gt;e_load</title>
<path fill="none" stroke="#e74c3c" stroke-width="2" d="M315.26,-663.67C304.94,-645.37 290.52,-619.77 278.06,-597.65"/>
<polygon fill="#e74c3c" stroke="#e74c3c" stroke-width="2" points="281.19,-596.08 273.23,-589.09 275.09,-599.52 281.19,-596.08"/>
<text text-anchor="start" x="304.12" y="-637.4" font-family="Helvetica,sans-Serif" font-weight="bold" font-size="10.00" fill="#c0392b"> &#160;40 reads x 3.9M rows</text>
<text text-anchor="start" x="330.37" y="-627.4" font-family="Helvetica,sans-Serif" font-size="10.00" fill="#c0392b"> &#160;</text>
<text text-anchor="start" x="336.37" y="-627.4" font-family="Helvetica,sans-Serif" font-style="italic" font-size="10.00" fill="#c0392b">bottleneck</text>
</g>
<!-- e_reform -->
<g id="node11" class="node">
<title>e_reform</title>
<path fill="white" stroke="black" d="M291.05,-477.75C291.05,-477.75 203,-477.75 203,-477.75 197,-477.75 191,-471.75 191,-465.75 191,-465.75 191,-446.85 191,-446.85 191,-440.85 197,-434.85 203,-434.85 203,-434.85 291.05,-434.85 291.05,-434.85 297.05,-434.85 303.05,-440.85 303.05,-446.85 303.05,-446.85 303.05,-465.75 303.05,-465.75 303.05,-471.75 297.05,-477.75 291.05,-477.75"/>
<text text-anchor="middle" x="247.03" y="-459.15" font-family="Helvetica,sans-Serif" font-size="12.00">Reform Overlay</text>
<text text-anchor="middle" x="247.03" y="-444.9" font-family="Helvetica,sans-Serif" font-size="12.00">(YAML diffs)</text>
</g>
<!-- e_load&#45;&gt;e_reform -->
<g id="edge10" class="edge">
<title>e_load&#45;&gt;e_reform</title>
<path fill="none" stroke="black" d="M250.12,-514.35C249.68,-506.15 249.2,-497.45 248.77,-489.39"/>
<polygon fill="black" stroke="black" points="252.28,-489.47 248.24,-479.67 245.29,-489.85 252.28,-489.47"/>
</g>
<!-- e_calc&#45;&gt;e_delta -->
<g id="edge12" class="edge">
<title>e_calc&#45;&gt;e_delta</title>
<path fill="none" stroke="black" d="M232.03,-320.9C232.03,-307.26 232.03,-290.78 232.03,-276.65"/>
<polygon fill="black" stroke="black" points="235.53,-276.95 232.03,-266.95 228.53,-276.95 235.53,-276.95"/>
<text text-anchor="start" x="232.02" y="-294.7" font-family="Helvetica,sans-Serif" font-style="italic" font-size="10.00" fill="#c0392b">re&#45;derives same</text>
<text text-anchor="start" x="247.02" y="-284.7" font-family="Helvetica,sans-Serif" font-style="italic" font-size="10.00" fill="#c0392b">final_rate</text>
</g>
<!-- e_reform&#45;&gt;e_calc -->
<g id="edge11" class="edge">
<title>e_reform&#45;&gt;e_calc</title>
<path fill="none" stroke="black" d="M244.03,-434.4C242.2,-421.68 239.81,-405.02 237.64,-389.92"/>
<polygon fill="black" stroke="black" points="241.14,-389.67 236.26,-380.27 234.21,-390.66 241.14,-389.67"/>
</g>
<!-- gtap -->
<g id="node13" class="node">
<title>gtap</title>
<path fill="#fef5e1" stroke="black" d="M318.55,-167.3C318.55,-167.3 155.5,-167.3 155.5,-167.3 149.5,-167.3 143.5,-161.3 143.5,-155.3 143.5,-155.3 143.5,-122.15 143.5,-122.15 143.5,-116.15 149.5,-110.15 155.5,-110.15 155.5,-110.15 318.55,-110.15 318.55,-110.15 324.55,-110.15 330.55,-116.15 330.55,-122.15 330.55,-122.15 330.55,-155.3 330.55,-155.3 330.55,-161.3 324.55,-167.3 318.55,-167.3"/>
<text text-anchor="middle" x="237.03" y="-148.7" font-family="Helvetica,sans-Serif" font-size="12.00">HS10&#45;&gt;GTAP crosswalk</text>
<text text-anchor="middle" x="237.03" y="-134.45" font-family="Helvetica,sans-Serif" font-size="12.00">Country&#45;&gt;Partner aggregation</text>
<text text-anchor="middle" x="237.03" y="-120.2" font-family="Helvetica,sans-Serif" font-size="12.00">Shock formatting</text>
</g>
<!-- e_delta&#45;&gt;gtap -->
<g id="edge13" class="edge">
<title>e_delta&#45;&gt;gtap</title>
<path fill="none" stroke="black" d="M233.04,-221.9C233.64,-209.56 234.41,-193.53 235.12,-178.9"/>
<polygon fill="black" stroke="black" points="238.61,-179.25 235.6,-169.09 231.62,-178.91 238.61,-179.25"/>
</g>
<!-- output -->
<g id="node14" class="node">
<title>output</title>
<polygon fill="#d5f5e3" stroke="black" points="284.8,-73.15 183.25,-73.15 183.25,-16 290.8,-16 290.8,-67.15 284.8,-73.15"/>
<polyline fill="none" stroke="black" points="284.8,-73.15 284.8,-67.15"/>
<polyline fill="none" stroke="black" points="290.8,-67.15 284.8,-67.15"/>
<text text-anchor="middle" x="237.03" y="-54.55" font-family="Helvetica,sans-Serif" font-size="12.00">Output:</text>
<text text-anchor="middle" x="237.03" y="-40.3" font-family="Helvetica,sans-Serif" font-size="12.00">Deltas, Levels,</text>
<text text-anchor="middle" x="237.03" y="-26.05" font-family="Helvetica,sans-Serif" font-size="12.00">GTAP Shocks</text>
</g>
<!-- gtap&#45;&gt;output -->
<g id="edge14" class="edge">
<title>gtap&#45;&gt;output</title>
<path fill="none" stroke="black" d="M237.03,-109.83C237.03,-101.89 237.03,-93.09 237.03,-84.62"/>
<polygon fill="black" stroke="black" points="240.53,-84.89 237.03,-74.89 233.53,-84.89 240.53,-84.89"/>
</g>
<!-- legend -->
<g id="node15" class="node">
<title>legend</title>
<polygon fill="#fadbd8" stroke="none" points="411.65,-1212.45 411.65,-1240.7 465.4,-1240.7 465.4,-1212.45 411.65,-1212.45"/>
<polygon fill="none" stroke="black" points="411.65,-1212.45 411.65,-1240.7 465.4,-1240.7 465.4,-1212.45 411.65,-1212.45"/>
<text text-anchor="start" x="427.27" y="-1222.3" font-family="Helvetica,sans-Serif" font-size="12.00">Red</text>
<polygon fill="none" stroke="black" points="465.4,-1212.45 465.4,-1240.7 806.4,-1240.7 806.4,-1212.45 465.4,-1212.45"/>
<text text-anchor="start" x="472.4" y="-1222.3" font-family="Helvetica,sans-Serif" font-size="12.00">Duplicated calculation logic (maintained in two repos)</text>
<polygon fill="#fef9e7" stroke="none" points="411.65,-1184.2 411.65,-1212.45 465.4,-1212.45 465.4,-1184.2 411.65,-1184.2"/>
<polygon fill="none" stroke="black" points="411.65,-1184.2 411.65,-1212.45 465.4,-1212.45 465.4,-1184.2 411.65,-1184.2"/>
<text text-anchor="start" x="418.65" y="-1194.05" font-family="Helvetica,sans-Serif" font-size="12.00">Orange</text>
<polygon fill="none" stroke="black" points="465.4,-1184.2 465.4,-1212.45 806.4,-1212.45 806.4,-1184.2 465.4,-1184.2"/>
<text text-anchor="start" x="472.4" y="-1194.05" font-family="Helvetica,sans-Serif" font-size="12.00">Bridge / waste (strips results, reformats, wrong&#45;repo concerns)</text>
<polygon fill="none" stroke="black" points="411.65,-1146.2 411.65,-1184.2 806.4,-1184.2 806.4,-1146.2 411.65,-1146.2"/>
<text text-anchor="start" x="418.65" y="-1166.8" font-family="Helvetica,sans-Serif" font-weight="bold" font-size="12.00">Runtime: ~20&#45;30 min</text>
<text text-anchor="start" x="534.9" y="-1166.8" font-family="Helvetica,sans-Serif" font-size="12.00"> for 40&#45;date scenario</text>
<text text-anchor="start" x="431.4" y="-1154.8" font-family="Helvetica,sans-Serif" font-size="12.00">(40x CSV parse + 40x full engine run)</text>
</g>
</g>
</svg>
