<?xml version="1.0" encoding="UTF-8" standalone="no"?>
<!DOCTYPE svg PUBLIC "-//W3C//DTD SVG 1.1//EN"
 "http://www.w3.org/Graphics/SVG/1.1/DTD/svg11.dtd">
<!-- Generated by graphviz version 12.2.1 (20241206.2353)
 -->
<!-- Title: proposed Pages: 1 -->
<svg width="1208pt" height="1788pt"
 viewBox="0.00 0.00 1208.25 1787.75" xmlns="http://www.w3.org/2000/svg" xmlns:xlink="http://www.w3.org/1999/xlink">
<g id="graph0" class="graph" transform="scale(1 1) rotate(0) translate(4 1783.75)">
<title>proposed</title>
<polygon fill="white" stroke="none" points="-4,4 -4,-1783.75 1204.25,-1783.75 1204.25,4 -4,4"/>
<text text-anchor="start" x="503.75" y="-1759.65" font-family="Helvetica,sans-Serif" font-weight="bold" font-size="18.00">Proposed Architecture</text>
<text text-anchor="start" x="372.12" y="-1741.65" font-family="Helvetica,sans-Serif" font-size="18.00">Single repo, parameterized engine, config/data separation</text>
<g id="clust1" class="cluster">
<title>cluster_preprocess</title>
<polygon fill="#fef9e7" stroke="#f39c12" points="381,-1431.45 381,-1703.54 685,-1703.54 685,-1431.45 381,-1431.45"/>
<text text-anchor="start" x="389" y="-1689.14" font-family="Helvetica,sans-Serif" font-weight="bold" font-size="12.00" fill="#e67e22">Preprocessing</text>
<text text-anchor="start" x="473" y="-1689.14" font-family="Helvetica,sans-Serif" font-size="12.00" fill="#e67e22"> &#160;(cached; re&#45;run with &#45;&#45;rebuild&#45;configs)</text>
</g>
<g id="clust2" class="cluster">
<title>cluster_user</title>
<polygon fill="#fdedec" stroke="#e74c3c" points="752,-1266.8 752,-1399.45 1060,-1399.45 1060,-1266.8 752,-1266.8"/>
<text text-anchor="start" x="876.38" y="-1385.05" font-family="Helvetica,sans-Serif" font-weight="bold" font-size="12.00" fill="#c0392b">User Input</text>
</g>
<g id="clust3" class="cluster">
<title>cluster_config</title>
<polygon fill="#eafaf1" stroke="#27ae60" points="203,-1286.8 203,-1379.45 725,-1379.45 725,-1286.8 203,-1286.8"/>
<text text-anchor="start" x="225.88" y="-1365.05" font-family="Helvetica,sans-Serif" font-weight="bold" font-size="12.00" fill="#27ae60">config/historical/{date}/</text>
<text text-anchor="start" x="357.12" y="-1365.05" font-family="Helvetica,sans-Serif" font-size="12.00" fill="#27ae60"> &#160;(one folder per revision &#45;&#45; generated by parser, human&#45;readable)</text>
</g>
<g id="clust4" class="cluster">
<title>cluster_builder</title>
<polygon fill="#f5eef8" stroke="#8e44ad" points="607,-653.15 607,-1245.8 1011,-1245.8 1011,-653.15 607,-653.15"/>
<text text-anchor="start" x="614.75" y="-1231.4" font-family="Helvetica,sans-Serif" font-weight="bold" font-size="12.00" fill="#8e44ad">Scenario Builder</text>
<text text-anchor="start" x="710" y="-1231.4" font-family="Helvetica,sans-Serif" font-size="12.00" fill="#8e44ad"> &#160;(assembles a policy state for each date in the timeline)</text>
</g>
<g id="clust5" class="cluster">
<title>cluster_data</title>
<polygon fill="#ebf5fb" stroke="#2980b9" points="8,-695.06 8,-792.29 599,-792.29 599,-695.06 8,-695.06"/>
<text text-anchor="start" x="134" y="-777.89" font-family="Helvetica,sans-Serif" font-weight="bold" font-size="12.00" fill="#2980b9">data/</text>
<text text-anchor="start" x="161.75" y="-777.89" font-family="Helvetica,sans-Serif" font-size="12.00" fill="#2980b9"> &#160;(loaded once, not config &#45;&#45; describes the world, not policy)</text>
</g>
<g id="clust6" class="cluster">
<title>cluster_engine</title>
<polygon fill="#f4ecf7" stroke="#8e44ad" points="67,-513.5 67,-621.15 512,-621.15 512,-513.5 67,-513.5"/>
<text text-anchor="start" x="75" y="-606.75" font-family="Helvetica,sans-Serif" font-weight="bold" font-size="12.00" fill="#8e44ad">Engine</text>
<text text-anchor="start" x="115.5" y="-606.75" font-family="Helvetica,sans-Serif" font-size="12.00" fill="#8e44ad"> &#160;(pure functions, parameterized by YAML, no hardcoded authority names)</text>
</g>
<g id="clust7" class="cluster">
<title>cluster_output</title>
<polygon fill="#eafaf1" stroke="#27ae60" points="378,-132.65 378,-228.05 537,-228.05 537,-132.65 378,-132.65"/>
<text text-anchor="start" x="385.88" y="-213.65" font-family="Helvetica,sans-Serif" font-weight="bold" font-size="12.00" fill="#27ae60">output/scenarios/{name}/</text>
</g>
<!-- hts -->
<g id="node1" class="node">
<title>hts</title>
<path fill="#e8e8e8" stroke="black" d="M577.4,-1667.93C577.4,-1670.89 557.5,-1673.29 533,-1673.29 508.5,-1673.29 488.6,-1670.89 488.6,-1667.93 488.6,-1667.93 488.6,-1619.67 488.6,-1619.67 488.6,-1616.71 508.5,-1614.31 533,-1614.31 557.5,-1614.31 577.4,-1616.71 577.4,-1619.67 577.4,-1619.67 577.4,-1667.93 577.4,-1667.93"/>
<path fill="none" stroke="black" d="M577.4,-1667.93C577.4,-1664.97 557.5,-1662.57 533,-1662.57 508.5,-1662.57 488.6,-1664.97 488.6,-1667.93"/>
<text text-anchor="middle" x="533" y="-1646.65" font-family="Helvetica,sans-Serif" font-size="12.00">HTS JSON</text>
<text text-anchor="middle" x="533" y="-1632.4" font-family="Helvetica,sans-Serif" font-size="12.00">Archives</text>
</g>
<!-- parser -->
<g id="node2" class="node">
<title>parser</title>
<path fill="white" stroke="black" d="M595.4,-1510.85C595.4,-1510.85 470.6,-1510.85 470.6,-1510.85 464.6,-1510.85 458.6,-1504.85 458.6,-1498.85 458.6,-1498.85 458.6,-1451.45 458.6,-1451.45 458.6,-1445.45 464.6,-1439.45 470.6,-1439.45 470.6,-1439.45 595.4,-1439.45 595.4,-1439.45 601.4,-1439.45 607.4,-1445.45 607.4,-1451.45 607.4,-1451.45 607.4,-1498.85 607.4,-1498.85 607.4,-1504.85 601.4,-1510.85 595.4,-1510.85"/>
<text text-anchor="middle" x="533" y="-1492.25" font-family="Helvetica,sans-Serif" font-size="12.00">HTS Parser</text>
<text text-anchor="middle" x="533" y="-1478" font-family="Helvetica,sans-Serif" font-size="12.00">(Ch99 footnotes,</text>
<text text-anchor="middle" x="533" y="-1463.75" font-family="Helvetica,sans-Serif" font-size="12.00">rate extraction,</text>
<text text-anchor="middle" x="533" y="-1449.5" font-family="Helvetica,sans-Serif" font-size="12.00">program classification)</text>
</g>
<!-- hts&#45;&gt;parser -->
<g id="edge1" class="edge">
<title>hts&#45;&gt;parser</title>
<path fill="none" stroke="black" d="M533,-1614.15C533,-1588.93 533,-1551.74 533,-1522.32"/>
<polygon fill="black" stroke="black" points="536.5,-1522.58 533,-1512.58 529.5,-1522.58 536.5,-1522.58"/>
</g>
<!-- rates -->
<g id="node5" class="node">
<title>rates</title>
<polygon fill="white" stroke="black" points="711.15,-1344.2 566.85,-1344.2 566.85,-1299.8 717.15,-1299.8 717.15,-1338.2 711.15,-1344.2"/>
<polyline fill="none" stroke="black" points="711.15,-1344.2 711.15,-1338.2"/>
<polyline fill="none" stroke="black" points="717.15,-1338.2 711.15,-1338.2"/>
<text text-anchor="start" x="614.62" y="-1328.5" font-family="Helvetica,sans-Serif" font-weight="bold" font-size="10.00">rates.csv.gz</text>
<text text-anchor="start" x="581.25" y="-1318.5" font-family="Helvetica,sans-Serif" font-size="10.00">Statutory per&#45;authority rates</text>
<text text-anchor="start" x="590.62" y="-1308.5" font-family="Helvetica,sans-Serif" font-size="10.00">hs10 x country (sparse)</text>
</g>
<!-- parser&#45;&gt;rates -->
<g id="edge2" class="edge">
<title>parser&#45;&gt;rates</title>
<path fill="none" stroke="#27ae60" d="M558.28,-1439.09C576.94,-1413.22 602.07,-1378.36 619.92,-1353.61"/>
<polygon fill="#27ae60" stroke="#27ae60" points="622.72,-1355.72 625.73,-1345.56 617.04,-1351.63 622.72,-1355.72"/>
<text text-anchor="middle" x="608.35" y="-1409.95" font-family="Helvetica,sans-Serif" font-size="10.00" fill="#27ae60"> &#160;generates &#160;</text>
</g>
<!-- params -->
<g id="node6" class="node">
<title>params</title>
<polygon fill="white" stroke="black" points="335.02,-1349.2 210.97,-1349.2 210.97,-1294.8 341.02,-1294.8 341.02,-1343.2 335.02,-1349.2"/>
<polyline fill="none" stroke="black" points="335.02,-1349.2 335.02,-1343.2"/>
<polyline fill="none" stroke="black" points="341.02,-1343.2 335.02,-1343.2"/>
<text text-anchor="start" x="246" y="-1333.5" font-family="Helvetica,sans-Serif" font-weight="bold" font-size="10.00">params.yaml</text>
<text text-anchor="start" x="225.38" y="-1323.5" font-family="Helvetica,sans-Serif" font-size="10.00">Adjustment parameters</text>
<text text-anchor="start" x="226.5" y="-1313.5" font-family="Helvetica,sans-Serif" font-size="10.00">(rebate, USMCA flags,</text>
<text text-anchor="start" x="229.88" y="-1303.5" font-family="Helvetica,sans-Serif" font-size="10.00">metal method, floors)</text>
</g>
<!-- parser&#45;&gt;params -->
<g id="edge3" class="edge">
<title>parser&#45;&gt;params</title>
<path fill="none" stroke="#27ae60" d="M458.1,-1447.06C427.53,-1434.53 392.5,-1418.25 363,-1399.45 344.12,-1387.41 325.2,-1371.38 309.85,-1357.11"/>
<polygon fill="#27ae60" stroke="#27ae60" points="312.47,-1354.77 302.81,-1350.43 307.66,-1359.85 312.47,-1354.77"/>
</g>
<!-- stacking_rules -->
<g id="node7" class="node">
<title>stacking_rules</title>
<polygon fill="white" stroke="black" points="517.9,-1349.2 384.1,-1349.2 384.1,-1294.8 523.9,-1294.8 523.9,-1343.2 517.9,-1349.2"/>
<polyline fill="none" stroke="black" points="517.9,-1349.2 517.9,-1343.2"/>
<polyline fill="none" stroke="black" points="523.9,-1343.2 517.9,-1343.2"/>
<text text-anchor="start" x="421.75" y="-1333.5" font-family="Helvetica,sans-Serif" font-weight="bold" font-size="10.00">stacking.yaml</text>
<text text-anchor="start" x="398.5" y="-1323.5" font-family="Helvetica,sans-Serif" font-size="10.00">Authority interaction rules</text>
<text text-anchor="start" x="403.75" y="-1313.5" font-family="Helvetica,sans-Serif" font-size="10.00">(exclusive, cumulative,</text>
<text text-anchor="start" x="415" y="-1303.5" font-family="Helvetica,sans-Serif" font-size="10.00">country overrides)</text>
</g>
<!-- parser&#45;&gt;stacking_rules -->
<g id="edge4" class="edge">
<title>parser&#45;&gt;stacking_rules</title>
<path fill="none" stroke="#27ae60" d="M514.68,-1439.09C502.21,-1415.24 485.75,-1383.74 473.11,-1359.57"/>
<polygon fill="#27ae60" stroke="#27ae60" points="476.22,-1357.95 468.48,-1350.71 470.01,-1361.2 476.22,-1357.95"/>
</g>
<!-- cache -->
<g id="node18" class="node">
<title>cache</title>
<polygon fill="#fcf3cf" stroke="black" points="1184.65,-754.75 1019.35,-754.75 1019.35,-710.35 1190.65,-710.35 1190.65,-748.75 1184.65,-754.75"/>
<polyline fill="none" stroke="black" points="1184.65,-754.75 1184.65,-748.75"/>
<polyline fill="none" stroke="black" points="1190.65,-748.75 1184.65,-748.75"/>
<text text-anchor="start" x="1055.5" y="-739.05" font-family="Helvetica,sans-Serif" font-weight="bold" font-size="10.00">.cache/final_rates.rds</text>
<text text-anchor="start" x="1033.75" y="-729.05" font-family="Helvetica,sans-Serif" font-size="10.00">(pre&#45;computed by preprocessing;</text>
<text text-anchor="start" x="1034.5" y="-719.05" font-family="Helvetica,sans-Serif" font-size="10.00">skips engine for historical dates)</text>
</g>
<!-- parser&#45;&gt;cache -->
<g id="edge21" class="edge">
<title>parser&#45;&gt;cache</title>
<path fill="none" stroke="#f39c12" stroke-dasharray="5,2" d="M607.77,-1471.52C736.97,-1465.73 995.35,-1448.24 1070,-1399.45 1103.39,-1377.63 1117,-1362.89 1117,-1323 1117,-1323 1117,-1323 1117,-904.15 1117,-856.08 1112.2,-800.57 1108.67,-766.26"/>
<polygon fill="#f39c12" stroke="#f39c12" points="1112.18,-766.14 1107.65,-756.57 1105.22,-766.88 1112.18,-766.14"/>
<text text-anchor="middle" x="1158.62" y="-1114.65" font-family="Helvetica,sans-Serif" font-size="10.00"> &#160;preprocessing</text>
<text text-anchor="middle" x="1158.62" y="-1102.65" font-family="Helvetica,sans-Serif" font-size="10.00"> &#160;populates cache &#160;</text>
</g>
<!-- scenario_yaml -->
<g id="node3" class="node">
<title>scenario_yaml</title>
<polygon fill="white" stroke="black" points="917.9,-1369.2 760.1,-1369.2 760.1,-1274.8 923.9,-1274.8 923.9,-1363.2 917.9,-1369.2"/>
<polyline fill="none" stroke="black" points="917.9,-1369.2 917.9,-1363.2"/>
<polyline fill="none" stroke="black" points="923.9,-1363.2 917.9,-1363.2"/>
<text text-anchor="start" x="809.38" y="-1353.5" font-family="Helvetica,sans-Serif" font-weight="bold" font-size="10.00">scenario.yaml</text>
<text text-anchor="start" x="794.75" y="-1333.5" font-family="Helvetica,sans-Serif" font-size="10.00">baseline: &#39;2025&#45;01&#45;01&#39;</text>
<text text-anchor="start" x="788.75" y="-1323.5" font-family="Helvetica,sans-Serif" font-size="10.00">counterfactual: historical</text>
<text text-anchor="start" x="824" y="-1313.5" font-family="Helvetica,sans-Serif" font-size="10.00">reforms:</text>
<text text-anchor="start" x="797.38" y="-1303.5" font-family="Helvetica,sans-Serif" font-size="10.00"> &#160;&#45; date: &#39;2026&#45;07&#45;20&#39;</text>
<text text-anchor="start" x="797" y="-1293.5" font-family="Helvetica,sans-Serif" font-size="10.00"> &#160;&#160;&#160;from: &#39;2026&#45;02&#45;20&#39;</text>
<text text-anchor="start" x="774.5" y="-1283.5" font-family="Helvetica,sans-Serif" font-size="10.00"> &#160;&#160;&#160;apply: reforms/s122_expired</text>
</g>
<!-- resolve -->
<g id="node8" class="node">
<title>resolve</title>
<path fill="white" stroke="black" d="M726.65,-1215.55C726.65,-1215.55 627.35,-1215.55 627.35,-1215.55 621.35,-1215.55 615.35,-1209.55 615.35,-1203.55 615.35,-1203.55 615.35,-1156.15 615.35,-1156.15 615.35,-1150.15 621.35,-1144.15 627.35,-1144.15 627.35,-1144.15 726.65,-1144.15 726.65,-1144.15 732.65,-1144.15 738.65,-1150.15 738.65,-1156.15 738.65,-1156.15 738.65,-1203.55 738.65,-1203.55 738.65,-1209.55 732.65,-1215.55 726.65,-1215.55"/>
<text text-anchor="middle" x="677" y="-1196.95" font-family="Helvetica,sans-Serif" font-size="12.00">Resolve Timeline</text>
<text text-anchor="middle" x="677" y="-1182.7" font-family="Helvetica,sans-Serif" font-size="12.00">(all revision dates</text>
<text text-anchor="middle" x="677" y="-1168.45" font-family="Helvetica,sans-Serif" font-size="12.00">between baseline</text>
<text text-anchor="middle" x="677" y="-1154.2" font-family="Helvetica,sans-Serif" font-size="12.00">and horizon)</text>
</g>
<!-- scenario_yaml&#45;&gt;resolve -->
<g id="edge8" class="edge">
<title>scenario_yaml&#45;&gt;resolve</title>
<path fill="none" stroke="#c0392b" d="M787.06,-1274.33C767.72,-1257.9 746.09,-1239.53 727.16,-1223.46"/>
<polygon fill="#c0392b" stroke="#c0392b" points="729.43,-1220.79 719.55,-1216.99 724.9,-1226.13 729.43,-1220.79"/>
</g>
<!-- reform_yaml -->
<g id="node4" class="node">
<title>reform_yaml</title>
<polygon fill="white" stroke="black" points="1045.53,-1369.2 966.48,-1369.2 966.48,-1274.8 1051.53,-1274.8 1051.53,-1363.2 1045.53,-1369.2"/>
<polyline fill="none" stroke="black" points="1045.53,-1369.2 1045.53,-1363.2"/>
<polyline fill="none" stroke="black" points="1051.53,-1363.2 1045.53,-1363.2"/>
<text text-anchor="start" x="980.88" y="-1353.5" font-family="Helvetica,sans-Serif" font-weight="bold" font-size="10.00">reform.yaml</text>
<text text-anchor="start" x="996.62" y="-1333.5" font-family="Helvetica,sans-Serif" font-size="10.00">rates:</text>
<text text-anchor="start" x="989.88" y="-1323.5" font-family="Helvetica,sans-Serif" font-size="10.00"> &#160;s122: 0</text>
<text text-anchor="start" x="991.38" y="-1313.5" font-family="Helvetica,sans-Serif" font-size="10.00">params:</text>
<text text-anchor="start" x="1001.5" y="-1303.5" font-family="Helvetica,sans-Serif" font-size="10.00"> &#160;...</text>
<text text-anchor="start" x="989.12" y="-1293.5" font-family="Helvetica,sans-Serif" font-size="10.00">stacking:</text>
<text text-anchor="start" x="1001.5" y="-1283.5" font-family="Helvetica,sans-Serif" font-size="10.00"> &#160;...</text>
</g>
<!-- reform_path -->
<g id="node11" class="node">
<title>reform_path</title>
<path fill="#fcf3cf" stroke="black" d="M984.4,-942.35C984.4,-942.35 901.6,-942.35 901.6,-942.35 895.6,-942.35 889.6,-936.35 889.6,-930.35 889.6,-930.35 889.6,-879.95 889.6,-879.95 889.6,-873.95 895.6,-867.95 901.6,-867.95 901.6,-867.95 984.4,-867.95 984.4,-867.95 990.4,-867.95 996.4,-873.95 996.4,-879.95 996.4,-879.95 996.4,-930.35 996.4,-930.35 996.4,-936.35 990.4,-942.35 984.4,-942.35"/>
<text text-anchor="start" x="914.88" y="-924.75" font-family="Helvetica,sans-Serif" font-weight="bold" font-size="12.00">Reformed</text>
<text text-anchor="start" x="911.5" y="-912.75" font-family="Helvetica,sans-Serif" font-size="12.00">(1/40 dates)</text>
<text text-anchor="start" x="904" y="-888.75" font-family="Helvetica,sans-Serif" font-size="12.00">Config folder +</text>
<text text-anchor="start" x="905.12" y="-876.75" font-family="Helvetica,sans-Serif" font-size="12.00">reform overlay</text>
</g>
<!-- reform_yaml&#45;&gt;reform_path -->
<g id="edge9" class="edge">
<title>reform_yaml&#45;&gt;reform_path</title>
<path fill="none" stroke="#c0392b" stroke-dasharray="5,2" d="M1001.62,-1274.62C988.99,-1195.22 963.35,-1034.07 950.58,-953.81"/>
<polygon fill="#c0392b" stroke="#c0392b" points="954.06,-953.39 949.03,-944.06 947.15,-954.49 954.06,-953.39"/>
</g>
<!-- rates&#45;&gt;resolve -->
<g id="edge5" class="edge">
<title>rates&#45;&gt;resolve</title>
<path fill="none" stroke="#27ae60" stroke-dasharray="5,2" d="M647.39,-1299.41C652.21,-1280.1 659.44,-1251.15 665.55,-1226.7"/>
<polygon fill="#27ae60" stroke="#27ae60" points="668.87,-1227.85 667.9,-1217.3 662.08,-1226.15 668.87,-1227.85"/>
</g>
<!-- params&#45;&gt;resolve -->
<g id="edge6" class="edge">
<title>params&#45;&gt;resolve</title>
<path fill="none" stroke="#27ae60" stroke-dasharray="5,2" d="M313.23,-1294.49C328.17,-1284.75 345.88,-1274.29 363,-1266.8 442.31,-1232.13 539.09,-1208.18 604.07,-1194.53"/>
<polygon fill="#27ae60" stroke="#27ae60" points="604.45,-1198.03 613.53,-1192.58 603.03,-1191.17 604.45,-1198.03"/>
</g>
<!-- stacking_rules&#45;&gt;resolve -->
<g id="edge7" class="edge">
<title>stacking_rules&#45;&gt;resolve</title>
<path fill="none" stroke="#27ae60" stroke-dasharray="5,2" d="M496.47,-1294.31C528.95,-1273.9 574.32,-1245.38 611.45,-1222.05"/>
<polygon fill="#27ae60" stroke="#27ae60" points="613.3,-1225.02 619.9,-1216.73 609.58,-1219.09 613.3,-1225.02"/>
</g>
<!-- branch -->
<g id="node9" class="node">
<title>branch</title>
<polygon fill="white" stroke="black" points="773,-1080.15 676.7,-1037.25 773,-994.35 869.3,-1037.25 773,-1080.15"/>
<text text-anchor="middle" x="773" y="-1040.1" font-family="Helvetica,sans-Serif" font-size="12.00">Historical</text>
<text text-anchor="middle" x="773" y="-1025.85" font-family="Helvetica,sans-Serif" font-size="12.00">or reformed?</text>
</g>
<!-- resolve&#45;&gt;branch -->
<g id="edge10" class="edge">
<title>resolve&#45;&gt;branch</title>
<path fill="none" stroke="black" d="M700.98,-1143.73C714.21,-1124.35 730.72,-1100.17 744.6,-1079.84"/>
<polygon fill="black" stroke="black" points="747.37,-1082 750.12,-1071.76 741.59,-1078.05 747.37,-1082"/>
</g>
<!-- hist_path -->
<g id="node10" class="node">
<title>hist_path</title>
<path fill="#d5f5e3" stroke="black" d="M834.65,-936.35C834.65,-936.35 711.35,-936.35 711.35,-936.35 705.35,-936.35 699.35,-930.35 699.35,-924.35 699.35,-924.35 699.35,-885.95 699.35,-885.95 699.35,-879.95 705.35,-873.95 711.35,-873.95 711.35,-873.95 834.65,-873.95 834.65,-873.95 840.65,-873.95 846.65,-879.95 846.65,-885.95 846.65,-885.95 846.65,-924.35 846.65,-924.35 846.65,-930.35 840.65,-936.35 834.65,-936.35"/>
<text text-anchor="start" x="746" y="-918.75" font-family="Helvetica,sans-Serif" font-weight="bold" font-size="12.00">Historical</text>
<text text-anchor="start" x="738.12" y="-906.75" font-family="Helvetica,sans-Serif" font-size="12.00">(39/40 dates)</text>
<text text-anchor="start" x="713.75" y="-882.75" font-family="Helvetica,sans-Serif" font-size="12.00">Use config folder as&#45;is</text>
</g>
<!-- branch&#45;&gt;hist_path -->
<g id="edge11" class="edge">
<title>branch&#45;&gt;hist_path</title>
<path fill="none" stroke="#27ae60" d="M773,-994.01C773,-979.26 773,-962.71 773,-947.99"/>
<polygon fill="#27ae60" stroke="#27ae60" points="776.5,-948.16 773,-938.16 769.5,-948.16 776.5,-948.16"/>
<text text-anchor="middle" x="794.75" y="-964.85" font-family="Helvetica,sans-Serif" font-size="10.00" fill="#27ae60"> &#160;cached &#160;</text>
</g>
<!-- branch&#45;&gt;reform_path -->
<g id="edge12" class="edge">
<title>branch&#45;&gt;reform_path</title>
<path fill="none" stroke="#e67e22" d="M807.81,-1009.61C830.4,-992.32 860.37,-969.39 886.34,-949.51"/>
<polygon fill="#e67e22" stroke="#e67e22" points="888.33,-952.4 894.14,-943.54 884.07,-946.84 888.33,-952.4"/>
<text text-anchor="middle" x="892.55" y="-964.85" font-family="Helvetica,sans-Serif" font-size="10.00" fill="#e67e22"> &#160;modified &#160;</text>
</g>
<!-- assembled -->
<g id="node12" class="node">
<title>assembled</title>
<polygon fill="#e8daef" stroke="black" points="904.72,-803.95 695.18,-803.95 641.28,-661.15 850.82,-661.15 904.72,-803.95"/>
<text text-anchor="middle" x="773" y="-749.65" font-family="Helvetica,sans-Serif" font-size="12.00">Assembled Config</text>
<text text-anchor="middle" x="773" y="-735.4" font-family="Helvetica,sans-Serif" font-size="12.00">for this date</text>
<text text-anchor="middle" x="773" y="-721.15" font-family="Helvetica,sans-Serif" font-size="12.00">(rates + params +</text>
<text text-anchor="middle" x="773" y="-706.9" font-family="Helvetica,sans-Serif" font-size="12.00">stacking rules)</text>
</g>
<!-- hist_path&#45;&gt;assembled -->
<g id="edge13" class="edge">
<title>hist_path&#45;&gt;assembled</title>
<path fill="none" stroke="black" d="M773,-873.65C773,-857.32 773,-836.33 773,-815.6"/>
<polygon fill="black" stroke="black" points="776.5,-815.66 773,-805.66 769.5,-815.66 776.5,-815.66"/>
</g>
<!-- hist_path&#45;&gt;cache -->
<g id="edge19" class="edge">
<title>hist_path&#45;&gt;cache</title>
<path fill="none" stroke="#27ae60" stroke-dasharray="5,2" d="M847.07,-876.03C906.74,-852.9 985.4,-821.22 1015,-803.95 1035.24,-792.14 1055.96,-776.24 1072.42,-762.54"/>
<polygon fill="#27ae60" stroke="#27ae60" points="1074.56,-765.31 1079.93,-756.17 1070.04,-759.97 1074.56,-765.31"/>
<text text-anchor="middle" x="989.65" y="-838.45" font-family="Helvetica,sans-Serif" font-size="10.00"> &#160;read</text>
<text text-anchor="middle" x="989.65" y="-826.45" font-family="Helvetica,sans-Serif" font-size="10.00"> &#160;cache &#160;</text>
</g>
<!-- reform_path&#45;&gt;assembled -->
<g id="edge14" class="edge">
<title>reform_path&#45;&gt;assembled</title>
<path fill="none" stroke="black" d="M906.53,-867.55C890.32,-851.29 870.58,-831.47 851.3,-812.12"/>
<polygon fill="black" stroke="black" points="853.97,-809.85 844.43,-805.23 849.01,-814.79 853.97,-809.85"/>
</g>
<!-- engine -->
<g id="node17" class="node">
<title>engine</title>
<path fill="#e8daef" stroke="black" d="M477.77,-590.9C477.77,-590.9 190.23,-590.9 190.23,-590.9 184.23,-590.9 178.22,-584.9 178.22,-578.9 178.22,-578.9 178.22,-533.5 178.22,-533.5 178.22,-527.5 184.22,-521.5 190.22,-521.5 190.22,-521.5 477.77,-521.5 477.77,-521.5 483.77,-521.5 489.77,-527.5 489.77,-533.5 489.77,-533.5 489.77,-578.9 489.77,-578.9 489.77,-584.9 483.77,-590.9 477.77,-590.9"/>
<text text-anchor="start" x="246.25" y="-574.25" font-family="Helvetica,sans-Serif" font-weight="bold" font-size="11.00">compute_final_rates(config, data)</text>
<text text-anchor="start" x="192.62" y="-552.25" font-family="Helvetica,sans-Serif" font-size="11.00">1. Auto rebate &#160;2. USMCA exemptions &#160;3. MFN exemptions</text>
<text text-anchor="start" x="227.12" y="-541.25" font-family="Helvetica,sans-Serif" font-size="11.00">4. Target&#45;total floors &#160;5. Metal content scaling</text>
<text text-anchor="start" x="223.38" y="-530.25" font-family="Helvetica,sans-Serif" font-size="11.00">6. </text>
<text text-anchor="start" x="235.38" y="-530.25" font-family="Helvetica,sans-Serif" font-weight="bold" font-size="11.00">Generic stacking</text>
<text text-anchor="start" x="323.12" y="-530.25" font-family="Helvetica,sans-Serif" font-size="11.00"> (driven by stacking.yaml)</text>
</g>
<!-- assembled&#45;&gt;engine -->
<g id="edge15" class="edge">
<title>assembled&#45;&gt;engine</title>
<path fill="none" stroke="#8e44ad" d="M643.34,-667.96C631.8,-662.79 620.23,-657.78 609,-653.15 557.93,-632.11 500.37,-611.55 451.16,-594.9"/>
<polygon fill="#8e44ad" stroke="#8e44ad" points="452.5,-591.66 441.91,-591.78 450.27,-598.29 452.5,-591.66"/>
<text text-anchor="middle" x="591.34" y="-631.65" font-family="Helvetica,sans-Serif" font-size="10.00" fill="#8e44ad"> &#160;config &#160;</text>
</g>
<!-- imports -->
<g id="node13" class="node">
<title>imports</title>
<path fill="#d4e6f1" stroke="black" d="M591.15,-756.68C591.15,-759.64 566.88,-762.04 537,-762.04 507.12,-762.04 482.85,-759.64 482.85,-756.68 482.85,-756.68 482.85,-708.42 482.85,-708.42 482.85,-705.46 507.12,-703.06 537,-703.06 566.88,-703.06 591.15,-705.46 591.15,-708.42 591.15,-708.42 591.15,-756.68 591.15,-756.68"/>
<path fill="none" stroke="black" d="M591.15,-756.68C591.15,-753.72 566.88,-751.32 537,-751.32 507.12,-751.32 482.85,-753.72 482.85,-756.68"/>
<text text-anchor="middle" x="537" y="-735.4" font-family="Helvetica,sans-Serif" font-size="12.00">Import Weights</text>
<text text-anchor="middle" x="537" y="-721.15" font-family="Helvetica,sans-Serif" font-size="12.00">(Census)</text>
</g>
<!-- delta -->
<g id="node20" class="node">
<title>delta</title>
<path fill="white" stroke="black" d="M528.4,-314.2C528.4,-314.2 385.6,-314.2 385.6,-314.2 379.6,-314.2 373.6,-308.2 373.6,-302.2 373.6,-302.2 373.6,-269.05 373.6,-269.05 373.6,-263.05 379.6,-257.05 385.6,-257.05 385.6,-257.05 528.4,-257.05 528.4,-257.05 534.4,-257.05 540.4,-263.05 540.4,-269.05 540.4,-269.05 540.4,-302.2 540.4,-302.2 540.4,-308.2 534.4,-314.2 528.4,-314.2"/>
<text text-anchor="middle" x="457" y="-295.6" font-family="Helvetica,sans-Serif" font-size="12.00">Compute Delta</text>
<text text-anchor="middle" x="457" y="-281.35" font-family="Helvetica,sans-Serif" font-size="12.00">(counterfactual &#45; baseline)</text>
<text text-anchor="middle" x="457" y="-267.1" font-family="Helvetica,sans-Serif" font-size="12.00">weighted by imports</text>
</g>
<!-- imports&#45;&gt;delta -->
<g id="edge23" class="edge">
<title>imports&#45;&gt;delta</title>
<path fill="none" stroke="#2980b9" stroke-dasharray="5,2" d="M540.58,-702.95C547.5,-638.37 558.15,-477.41 511,-355.2 506.66,-343.95 499.8,-333.07 492.41,-323.41"/>
<polygon fill="#2980b9" stroke="#2980b9" points="495.2,-321.29 486.18,-315.74 489.76,-325.71 495.2,-321.29"/>
<text text-anchor="middle" x="557.87" y="-492" font-family="Helvetica,sans-Serif" font-size="10.00"> &#160;data &#160;</text>
</g>
<!-- metal -->
<g id="node14" class="node">
<title>metal</title>
<path fill="#d4e6f1" stroke="black" d="M439.52,-756.68C439.52,-759.64 416.43,-762.04 388,-762.04 359.57,-762.04 336.48,-759.64 336.48,-756.68 336.48,-756.68 336.48,-708.42 336.48,-708.42 336.48,-705.46 359.57,-703.06 388,-703.06 416.43,-703.06 439.52,-705.46 439.52,-708.42 439.52,-708.42 439.52,-756.68 439.52,-756.68"/>
<path fill="none" stroke="black" d="M439.52,-756.68C439.52,-753.72 416.43,-751.32 388,-751.32 359.57,-751.32 336.48,-753.72 336.48,-756.68"/>
<text text-anchor="middle" x="388" y="-735.4" font-family="Helvetica,sans-Serif" font-size="12.00">Metal Content</text>
<text text-anchor="middle" x="388" y="-721.15" font-family="Helvetica,sans-Serif" font-size="12.00">(BEA I&#45;O)</text>
</g>
<!-- metal&#45;&gt;engine -->
<g id="edge16" class="edge">
<title>metal&#45;&gt;engine</title>
<path fill="none" stroke="#2980b9" stroke-dasharray="5,2" d="M379.08,-702.76C370.59,-675.33 357.67,-633.64 347.84,-601.89"/>
<polygon fill="#2980b9" stroke="#2980b9" points="351.25,-601.08 344.95,-592.56 344.57,-603.15 351.25,-601.08"/>
<text text-anchor="middle" x="374.76" y="-631.65" font-family="Helvetica,sans-Serif" font-size="10.00"> &#160;data &#160;</text>
</g>
<!-- usmca -->
<g id="node15" class="node">
<title>usmca</title>
<path fill="#d4e6f1" stroke="black" d="M129.78,-756.68C129.78,-759.64 104.33,-762.04 73,-762.04 41.67,-762.04 16.23,-759.64 16.23,-756.68 16.23,-756.68 16.23,-708.42 16.23,-708.42 16.23,-705.46 41.67,-703.06 73,-703.06 104.33,-703.06 129.78,-705.46 129.78,-708.42 129.78,-708.42 129.78,-756.68 129.78,-756.68"/>
<path fill="none" stroke="black" d="M129.78,-756.68C129.78,-753.72 104.33,-751.32 73,-751.32 41.67,-751.32 16.23,-753.72 16.23,-756.68"/>
<text text-anchor="middle" x="73" y="-735.4" font-family="Helvetica,sans-Serif" font-size="12.00">USMCA Shares</text>
<text text-anchor="middle" x="73" y="-721.15" font-family="Helvetica,sans-Serif" font-size="12.00">(DataWeb)</text>
</g>
<!-- usmca&#45;&gt;engine -->
<g id="edge17" class="edge">
<title>usmca&#45;&gt;engine</title>
<path fill="none" stroke="#2980b9" stroke-dasharray="5,2" d="M97.51,-702.92C112.03,-687.03 131.38,-667.62 151,-653.15 180.31,-631.54 215.15,-611.98 246.52,-596.24"/>
<polygon fill="#2980b9" stroke="#2980b9" points="247.81,-599.51 255.22,-591.94 244.71,-593.23 247.81,-599.51"/>
</g>
<!-- mfn_exempt -->
<g id="node16" class="node">
<title>mfn_exempt</title>
<path fill="#d4e6f1" stroke="black" d="M293.52,-756.68C293.52,-759.64 266.4,-762.04 233,-762.04 199.6,-762.04 172.47,-759.64 172.47,-756.68 172.47,-756.68 172.47,-708.42 172.47,-708.42 172.47,-705.46 199.6,-703.06 233,-703.06 266.4,-703.06 293.52,-705.46 293.52,-708.42 293.52,-708.42 293.52,-756.68 293.52,-756.68"/>
<path fill="none" stroke="black" d="M293.52,-756.68C293.52,-753.72 266.4,-751.32 233,-751.32 199.6,-751.32 172.47,-753.72 172.47,-756.68"/>
<text text-anchor="middle" x="233" y="-735.4" font-family="Helvetica,sans-Serif" font-size="12.00">MFN Exemptions</text>
<text text-anchor="middle" x="233" y="-721.15" font-family="Helvetica,sans-Serif" font-size="12.00">(Census)</text>
</g>
<!-- mfn_exempt&#45;&gt;engine -->
<g id="edge18" class="edge">
<title>mfn_exempt&#45;&gt;engine</title>
<path fill="none" stroke="#2980b9" stroke-dasharray="5,2" d="M249.68,-702.76C265.7,-675.09 290.14,-632.91 308.59,-601.06"/>
<polygon fill="#2980b9" stroke="#2980b9" points="311.61,-602.83 313.59,-592.43 305.55,-599.33 311.61,-602.83"/>
</g>
<!-- final_rates -->
<g id="node19" class="node">
<title>final_rates</title>
<polygon fill="#d2b4de" stroke="black" points="489.94,-469.5 281.64,-469.5 228.06,-355.2 436.36,-355.2 489.94,-469.5"/>
<text text-anchor="middle" x="359" y="-422.33" font-family="Helvetica,sans-Serif" font-size="12.00">final_rate</text>
<text text-anchor="middle" x="359" y="-408.08" font-family="Helvetica,sans-Serif" font-size="12.00">per hs10 x country</text>
<text text-anchor="middle" x="359" y="-393.83" font-family="Helvetica,sans-Serif" font-size="12.00">(for this date)</text>
</g>
<!-- engine&#45;&gt;final_rates -->
<g id="edge22" class="edge">
<title>engine&#45;&gt;final_rates</title>
<path fill="none" stroke="#8e44ad" d="M339.99,-521.22C342.13,-509.06 344.63,-494.9 347.09,-480.9"/>
<polygon fill="#8e44ad" stroke="#8e44ad" points="350.51,-481.71 348.8,-471.25 343.61,-480.49 350.51,-481.71"/>
</g>
<!-- cache&#45;&gt;final_rates -->
<g id="edge20" class="edge">
<title>cache&#45;&gt;final_rates</title>
<path fill="none" stroke="#27ae60" stroke-dasharray="5,2" d="M1084.47,-709.94C1067.22,-692.76 1041.23,-669.04 1015,-653.15 845.72,-550.64 625.66,-481.37 488.36,-444.62"/>
<polygon fill="#27ae60" stroke="#27ae60" points="489.42,-441.28 478.86,-442.1 487.62,-448.05 489.42,-441.28"/>
<text text-anchor="middle" x="971.27" y="-558.7" font-family="Helvetica,sans-Serif" font-size="10.00"> &#160;skip</text>
<text text-anchor="middle" x="971.27" y="-546.7" font-family="Helvetica,sans-Serif" font-size="10.00"> &#160;engine &#160;</text>
</g>
<!-- final_rates&#45;&gt;delta -->
<g id="edge24" class="edge">
<title>final_rates&#45;&gt;delta</title>
<path fill="none" stroke="black" d="M403.41,-354.83C411.7,-344.28 420.17,-333.5 427.85,-323.72"/>
<polygon fill="black" stroke="black" points="430.58,-325.91 434.01,-315.88 425.08,-321.58 430.58,-325.91"/>
</g>
<!-- out -->
<g id="node22" class="node">
<title>out</title>
<polygon fill="white" stroke="black" points="512.65,-197.8 395.35,-197.8 395.35,-140.65 518.65,-140.65 518.65,-191.8 512.65,-197.8"/>
<polyline fill="none" stroke="black" points="512.65,-197.8 512.65,-191.8"/>
<polyline fill="none" stroke="black" points="518.65,-191.8 512.65,-191.8"/>
<text text-anchor="middle" x="457" y="-179.2" font-family="Helvetica,sans-Serif" font-size="12.00">Deltas + Levels</text>
<text text-anchor="middle" x="457" y="-164.95" font-family="Helvetica,sans-Serif" font-size="12.00">by Country, HTS2</text>
<text text-anchor="middle" x="457" y="-150.7" font-family="Helvetica,sans-Serif" font-size="12.00">(model&#45;agnostic)</text>
</g>
<!-- delta&#45;&gt;out -->
<g id="edge25" class="edge">
<title>delta&#45;&gt;out</title>
<path fill="none" stroke="black" d="M457,-256.64C457,-242.41 457,-224.88 457,-209.33"/>
<polygon fill="black" stroke="black" points="460.5,-209.43 457,-199.44 453.5,-209.44 460.5,-209.43"/>
</g>
<!-- repeat -->
<g id="node21" class="node">
<title>repeat</title>
<text text-anchor="start" x="597.88" y="-283.12" font-family="Helvetica,sans-Serif" font-style="italic" font-size="10.00" fill="#8e44ad">repeat for each date in timeline</text>
</g>
<!-- downstream -->
<g id="node23" class="node">
<title>downstream</title>
<path fill="#f2f3f4" stroke="#aaaaaa" stroke-dasharray="5,2" d="M522.4,-99.65C522.4,-99.65 391.6,-99.65 391.6,-99.65 385.6,-99.65 379.6,-93.65 379.6,-87.65 379.6,-87.65 379.6,-12 379.6,-12 379.6,-6 385.6,0 391.6,0 391.6,0 522.4,0 522.4,0 528.4,0 534.4,-6 534.4,-12 534.4,-12 534.4,-87.65 534.4,-87.65 534.4,-93.65 528.4,-99.65 522.4,-99.65"/>
<text text-anchor="middle" x="457" y="-81.05" font-family="Helvetica,sans-Serif" font-size="12.00" fill="#666666">Downstream Consumer</text>
<text text-anchor="middle" x="457" y="-66.8" font-family="Helvetica,sans-Serif" font-size="12.00" fill="#666666">(separate repo)</text>
<text text-anchor="middle" x="457" y="-38.55" font-family="Helvetica,sans-Serif" font-size="12.00" fill="#666666">GTAP crosswalk,</text>
<text text-anchor="middle" x="457" y="-24.3" font-family="Helvetica,sans-Serif" font-size="12.00" fill="#666666">partner aggregation,</text>
<text text-anchor="middle" x="457" y="-10.05" font-family="Helvetica,sans-Serif" font-size="12.00" fill="#666666">shock formatting</text>
</g>
<!-- out&#45;&gt;downstream -->
<g id="edge26" class="edge">
<title>out&#45;&gt;downstream</title>
<path fill="none" stroke="#aaaaaa" stroke-dasharray="5,2" d="M457,-140.4C457,-131.63 457,-121.58 457,-111.45"/>
<polygon fill="#aaaaaa" stroke="#aaaaaa" points="460.5,-111.56 457,-101.56 453.5,-111.56 460.5,-111.56"/>
</g>
<!-- legend -->
<g id="node24" class="node">
<title>legend</title>
<polygon fill="#fef9e7" stroke="none" points="707.5,-1700.3 707.5,-1728.55 756.75,-1728.55 756.75,-1700.3 707.5,-1700.3"/>
<polygon fill="none" stroke="black" points="707.5,-1700.3 707.5,-1728.55 756.75,-1728.55 756.75,-1700.3 707.5,-1700.3"/>
<text text-anchor="start" x="714.5" y="-1710.15" font-family="Helvetica,sans-Serif" font-size="12.00">Yellow</text>
<polygon fill="none" stroke="black" points="756.75,-1700.3 756.75,-1728.55 1128.5,-1728.55 1128.5,-1700.3 756.75,-1700.3"/>
<text text-anchor="start" x="763.75" y="-1710.15" font-family="Helvetica,sans-Serif" font-size="12.00">PREPROCESSING (HTS parsing, cached, run once per revision)</text>
<polygon fill="#fdedec" stroke="none" points="707.5,-1672.05 707.5,-1700.3 756.75,-1700.3 756.75,-1672.05 707.5,-1672.05"/>
<polygon fill="none" stroke="black" points="707.5,-1672.05 707.5,-1700.3 756.75,-1700.3 756.75,-1672.05 707.5,-1672.05"/>
<text text-anchor="start" x="720.88" y="-1681.9" font-family="Helvetica,sans-Serif" font-size="12.00">Red</text>
<polygon fill="none" stroke="black" points="756.75,-1672.05 756.75,-1700.3 1128.5,-1700.3 1128.5,-1672.05 756.75,-1672.05"/>
<text text-anchor="start" x="763.75" y="-1681.9" font-family="Helvetica,sans-Serif" font-size="12.00">USER INPUT (scenario definition, reform overlays)</text>
<polygon fill="#eafaf1" stroke="none" points="707.5,-1643.8 707.5,-1672.05 756.75,-1672.05 756.75,-1643.8 707.5,-1643.8"/>
<polygon fill="none" stroke="black" points="707.5,-1643.8 707.5,-1672.05 756.75,-1672.05 756.75,-1643.8 707.5,-1643.8"/>
<text text-anchor="start" x="715.62" y="-1653.65" font-family="Helvetica,sans-Serif" font-size="12.00">Green</text>
<polygon fill="none" stroke="black" points="756.75,-1643.8 756.75,-1672.05 1128.5,-1672.05 1128.5,-1643.8 756.75,-1643.8"/>
<text text-anchor="start" x="763.75" y="-1653.65" font-family="Helvetica,sans-Serif" font-size="12.00">CONFIG (per&#45;revision policy: rates, params, stacking rules)</text>
<polygon fill="#f4ecf7" stroke="none" points="707.5,-1615.55 707.5,-1643.8 756.75,-1643.8 756.75,-1615.55 707.5,-1615.55"/>
<polygon fill="none" stroke="black" points="707.5,-1615.55 707.5,-1643.8 756.75,-1643.8 756.75,-1615.55 707.5,-1615.55"/>
<text text-anchor="start" x="714.5" y="-1625.4" font-family="Helvetica,sans-Serif" font-size="12.00">Purple</text>
<polygon fill="none" stroke="black" points="756.75,-1615.55 756.75,-1643.8 1128.5,-1643.8 1128.5,-1615.55 756.75,-1615.55"/>
<text text-anchor="start" x="763.75" y="-1625.4" font-family="Helvetica,sans-Serif" font-size="12.00">SCENARIO BUILDER + ENGINE (assemble config, compute rates)</text>
<polygon fill="#ebf5fb" stroke="none" points="707.5,-1587.3 707.5,-1615.55 756.75,-1615.55 756.75,-1587.3 707.5,-1587.3"/>
<polygon fill="none" stroke="black" points="707.5,-1587.3 707.5,-1615.55 756.75,-1615.55 756.75,-1587.3 707.5,-1587.3"/>
<text text-anchor="start" x="719.75" y="-1597.15" font-family="Helvetica,sans-Serif" font-size="12.00">Blue</text>
<polygon fill="none" stroke="black" points="756.75,-1587.3 756.75,-1615.55 1128.5,-1615.55 1128.5,-1587.3 756.75,-1587.3"/>
<text text-anchor="start" x="763.75" y="-1597.15" font-family="Helvetica,sans-Serif" font-size="12.00">DATA (external, loaded once: imports, metal, USMCA, MFN)</text>
<polygon fill="none" stroke="black" points="707.5,-1559.05 707.5,-1587.3 1128.5,-1587.3 1128.5,-1559.05 707.5,-1559.05"/>
<text text-anchor="start" x="714.5" y="-1569.9" font-family="Helvetica,sans-Serif" font-weight="bold" font-size="12.00">Runtime: ~30 sec</text>
<text text-anchor="start" x="812.75" y="-1569.9" font-family="Helvetica,sans-Serif" font-size="12.00"> for 40&#45;date scenario (39 cache reads + 1 engine run)</text>
</g>
</g>
</svg>
